<?xml version="1.0" encoding="utf-8"?>
<svg version="1.1" xmlns:xlink="http://www.w3.org/1999/xlink" width="13px" height="13px" viewBox="98 291.5  13 13" xmlns="http://www.w3.org/2000/svg">
  <path d="M 104.5 291.5  C 108.14 291.5  111 294.36  111 298  C 111 301.64  108.14 304.5  104.5 304.5  C 100.86 304.5  98 301.64  98 298  C 98 294.36  100.86 291.5  104.5 291.5  Z " fill-rule="nonzero" fill="#f0f0f0" stroke="none" />
  <path d="M 104.5 292  C 107.86 292  110.5 294.64  110.5 298  C 110.5 301.36  107.86 304  104.5 304  C 101.14 304  98.5 301.36  98.5 298  C 98.5 294.64  101.14 292  104.5 292  Z " stroke-width="1" stroke="#0043f0" fill="none" />
  <path d="M 104.5 301.25  C 102.68 301.25  101.25 299.82  101.25 298  C 101.25 296.18  102.68 294.75  104.5 294.75  C 106.32 294.75  107.75 296.18  107.75 298  C 107.75 299.82  106.32 301.25  104.5 301.25  " fill-rule="nonzero" fill="#0043f0" stroke="none" />
</svg>