<?xml version="1.0" encoding="utf-8"?>
<svg version="1.1" xmlns:xlink="http://www.w3.org/1999/xlink" width="13px" height="13px" viewBox="22 291.5  13 13" xmlns="http://www.w3.org/2000/svg">
  <path d="M 28.5 291.5  C 32.14 291.5  35 294.36  35 298  C 35 301.64  32.14 304.5  28.5 304.5  C 24.86 304.5  22 301.64  22 298  C 22 294.36  24.86 291.5  28.5 291.5  Z " fill-rule="nonzero" fill="#f0f0f0" stroke="none" />
  <path d="M 28.5 292  C 31.86 292  34.5 294.64  34.5 298  C 34.5 301.36  31.86 304  28.5 304  C 25.14 304  22.5 301.36  22.5 298  C 22.5 294.64  25.14 292  28.5 292  Z " stroke-width="1" stroke="#0043f0" fill="none" />
  <path d="M 28.5 301.25  C 26.68 301.25  25.25 299.82  25.25 298  C 25.25 296.18  26.68 294.75  28.5 294.75  C 30.32 294.75  31.75 296.18  31.75 298  C 31.75 299.82  30.32 301.25  28.5 301.25  " fill-rule="nonzero" fill="#0043f0" stroke="none" />
</svg>