<?xml version="1.0" encoding="utf-8"?>
<svg version="1.1" xmlns:xlink="http://www.w3.org/1999/xlink" width="18px" height="18px" viewBox="419 168  18 18" xmlns="http://www.w3.org/2000/svg">
  <path d="M 419.5 170  A 1.5 1.5 0 0 1 421 168.5 L 435 168.5  A 1.5 1.5 0 0 1 436.5 170 L 436.5 184  A 1.5 1.5 0 0 1 435 185.5 L 421 185.5  A 1.5 1.5 0 0 1 419.5 184 L 419.5 170  Z " fill-rule="nonzero" fill="#f0f0f0" stroke="none" />
  <path d="M 419.5 170  A 1.5 1.5 0 0 1 421 168.5 L 435 168.5  A 1.5 1.5 0 0 1 436.5 170 L 436.5 184  A 1.5 1.5 0 0 1 435 185.5 L 421 185.5  A 1.5 1.5 0 0 1 419.5 184 L 419.5 170  Z " stroke-width="1" stroke="#0043f0" fill="none" />
  <path d="M 422.857142857143 177  L 426.714285714286 180.857142857143  " stroke-width="3.85714285714286" stroke="#0043f0" fill="none" />
  <path d="M 426.714285714286 180.857142857143  L 433.142857142857 171.857142857143  " stroke-width="3.85714285714286" stroke="#0043f0" fill="none" />
</svg>