<?xml version="1.0" encoding="utf-8"?>
<svg version="1.1" xmlns:xlink="http://www.w3.org/1999/xlink" width="15px" height="15px" viewBox="0 312  15 15" xmlns="http://www.w3.org/2000/svg">
  <path d="M 7.5 313  C 11.14 313  14 315.86  14 319.5  C 14 323.14  11.14 326  7.5 326  C 3.86 326  1 323.14  1 319.5  C 1 315.86  3.86 313  7.5 313  Z " fill-rule="nonzero" fill="#f0f0f0" stroke="none" />
  <path d="M 7.5 313  C 11.14 313  14 315.86  14 319.5  C 14 323.14  11.14 326  7.5 326  C 3.86 326  1 323.14  1 319.5  C 1 315.86  3.86 313  7.5 313  Z " stroke-width="2" stroke="#93939d" fill="none" />
  <path d="M 7.5 323.25  C 5.4 323.25  3.75 321.6  3.75 319.5  C 3.75 317.4  5.4 315.75  7.5 315.75  C 9.6 315.75  11.25 317.4  11.25 319.5  C 11.25 321.6  9.6 323.25  7.5 323.25  " fill-rule="nonzero" fill="#93939d" stroke="none" />
</svg>