<?xml version="1.0" encoding="utf-8"?>
<svg version="1.1" xmlns:xlink="http://www.w3.org/1999/xlink" width="13px" height="13px" viewBox="89 840.5  13 13" xmlns="http://www.w3.org/2000/svg">
  <path d="M 95.5 841.5  C 98.58 841.5  101 843.92  101 847  C 101 850.08  98.58 852.5  95.5 852.5  C 92.42 852.5  90 850.08  90 847  C 90 843.92  92.42 841.5  95.5 841.5  Z " fill-rule="nonzero" fill="#f0f0f0" stroke="none" />
  <path d="M 95.5 841.5  C 98.58 841.5  101 843.92  101 847  C 101 850.08  98.58 852.5  95.5 852.5  C 92.42 852.5  90 850.08  90 847  C 90 843.92  92.42 841.5  95.5 841.5  Z " stroke-width="2" stroke="#93939d" fill="none" />
  <path d="M 95.5 850.25  C 93.68 850.25  92.25 848.82  92.25 847  C 92.25 845.18  93.68 843.75  95.5 843.75  C 97.32 843.75  98.75 845.18  98.75 847  C 98.75 848.82  97.32 850.25  95.5 850.25  " fill-rule="nonzero" fill="#93939d" stroke="none" />
</svg>