<?xml version="1.0" encoding="utf-8"?>
<svg version="1.1" xmlns:xlink="http://www.w3.org/1999/xlink" width="13px" height="13px" viewBox="514 975.5  13 13" xmlns="http://www.w3.org/2000/svg">
  <path d="M 520.5 975.5  C 524.14 975.5  527 978.36  527 982  C 527 985.64  524.14 988.5  520.5 988.5  C 516.86 988.5  514 985.64  514 982  C 514 978.36  516.86 975.5  520.5 975.5  Z " fill-rule="nonzero" fill="#f0f0f0" stroke="none" />
  <path d="M 520.5 976  C 523.86 976  526.5 978.64  526.5 982  C 526.5 985.36  523.86 988  520.5 988  C 517.14 988  514.5 985.36  514.5 982  C 514.5 978.64  517.14 976  520.5 976  Z " stroke-width="1" stroke="#0043f0" fill="none" />
  <path d="M 520.5 985.25  C 518.68 985.25  517.25 983.82  517.25 982  C 517.25 980.18  518.68 978.75  520.5 978.75  C 522.32 978.75  523.75 980.18  523.75 982  C 523.75 983.82  522.32 985.25  520.5 985.25  " fill-rule="nonzero" fill="#0043f0" stroke="none" />
</svg>