<?xml version="1.0" encoding="utf-8"?>
<svg version="1.1" xmlns:xlink="http://www.w3.org/1999/xlink" width="13px" height="13px" viewBox="188 832.5  13 13" xmlns="http://www.w3.org/2000/svg">
  <path d="M 194.5 832.5  C 198.14 832.5  201 835.36  201 839  C 201 842.64  198.14 845.5  194.5 845.5  C 190.86 845.5  188 842.64  188 839  C 188 835.36  190.86 832.5  194.5 832.5  Z " fill-rule="nonzero" fill="#ffffff" stroke="none" />
  <path d="M 194.5 833  C 197.86 833  200.5 835.64  200.5 839  C 200.5 842.36  197.86 845  194.5 845  C 191.14 845  188.5 842.36  188.5 839  C 188.5 835.64  191.14 833  194.5 833  Z " stroke-width="1" stroke="#0043f0" fill="none" />
  <path d="M 194.5 842.25  C 192.68 842.25  191.25 840.82  191.25 839  C 191.25 837.18  192.68 835.75  194.5 835.75  C 196.32 835.75  197.75 837.18  197.75 839  C 197.75 840.82  196.32 842.25  194.5 842.25  " fill-rule="nonzero" fill="#0043f0" stroke="none" />
</svg>