<?xml version="1.0" encoding="utf-8"?>
<svg version="1.1" xmlns:xlink="http://www.w3.org/1999/xlink" width="13px" height="13px" viewBox="514 903.5  13 13" xmlns="http://www.w3.org/2000/svg">
  <path d="M 520.5 903.5  C 524.14 903.5  527 906.36  527 910  C 527 913.64  524.14 916.5  520.5 916.5  C 516.86 916.5  514 913.64  514 910  C 514 906.36  516.86 903.5  520.5 903.5  Z " fill-rule="nonzero" fill="#f0f0f0" stroke="none" />
  <path d="M 520.5 904  C 523.86 904  526.5 906.64  526.5 910  C 526.5 913.36  523.86 916  520.5 916  C 517.14 916  514.5 913.36  514.5 910  C 514.5 906.64  517.14 904  520.5 904  Z " stroke-width="1" stroke="#0043f0" fill="none" />
  <path d="M 520.5 913.25  C 518.68 913.25  517.25 911.82  517.25 910  C 517.25 908.18  518.68 906.75  520.5 906.75  C 522.32 906.75  523.75 908.18  523.75 910  C 523.75 911.82  522.32 913.25  520.5 913.25  " fill-rule="nonzero" fill="#0043f0" stroke="none" />
</svg>