<?xml version="1.0" encoding="utf-8"?>
<svg version="1.1" xmlns:xlink="http://www.w3.org/1999/xlink" width="13px" height="13px" viewBox="514 869.5  13 13" xmlns="http://www.w3.org/2000/svg">
  <path d="M 520.5 869.5  C 524.14 869.5  527 872.36  527 876  C 527 879.64  524.14 882.5  520.5 882.5  C 516.86 882.5  514 879.64  514 876  C 514 872.36  516.86 869.5  520.5 869.5  Z " fill-rule="nonzero" fill="#ffffff" stroke="none" />
  <path d="M 520.5 870  C 523.86 870  526.5 872.64  526.5 876  C 526.5 879.36  523.86 882  520.5 882  C 517.14 882  514.5 879.36  514.5 876  C 514.5 872.64  517.14 870  520.5 870  Z " stroke-width="1" stroke="#0043f0" fill="none" />
  <path d="M 520.5 879.25  C 518.68 879.25  517.25 877.82  517.25 876  C 517.25 874.18  518.68 872.75  520.5 872.75  C 522.32 872.75  523.75 874.18  523.75 876  C 523.75 877.82  522.32 879.25  520.5 879.25  " fill-rule="nonzero" fill="#0043f0" stroke="none" />
</svg>