<?xml version="1.0" encoding="utf-8"?>
<svg version="1.1" xmlns:xlink="http://www.w3.org/1999/xlink" width="13px" height="13px" viewBox="47 832.5  13 13" xmlns="http://www.w3.org/2000/svg">
  <path d="M 53.5 832.5  C 57.14 832.5  60 835.36  60 839  C 60 842.64  57.14 845.5  53.5 845.5  C 49.86 845.5  47 842.64  47 839  C 47 835.36  49.86 832.5  53.5 832.5  Z " fill-rule="nonzero" fill="#f0f0f0" stroke="none" />
  <path d="M 53.5 833  C 56.86 833  59.5 835.64  59.5 839  C 59.5 842.36  56.86 845  53.5 845  C 50.14 845  47.5 842.36  47.5 839  C 47.5 835.64  50.14 833  53.5 833  Z " stroke-width="1" stroke="#0043f0" fill="none" />
  <path d="M 53.5 842.25  C 51.68 842.25  50.25 840.82  50.25 839  C 50.25 837.18  51.68 835.75  53.5 835.75  C 55.32 835.75  56.75 837.18  56.75 839  C 56.75 840.82  55.32 842.25  53.5 842.25  " fill-rule="nonzero" fill="#0043f0" stroke="none" />
</svg>