<?xml version="1.0" encoding="utf-8"?>
<svg version="1.1" xmlns:xlink="http://www.w3.org/1999/xlink" width="13px" height="13px" viewBox="514 832.5  13 13" xmlns="http://www.w3.org/2000/svg">
  <path d="M 520.5 832.5  C 524.14 832.5  527 835.36  527 839  C 527 842.64  524.14 845.5  520.5 845.5  C 516.86 845.5  514 842.64  514 839  C 514 835.36  516.86 832.5  520.5 832.5  Z " fill-rule="nonzero" fill="#f0f0f0" stroke="none" />
  <path d="M 520.5 833  C 523.86 833  526.5 835.64  526.5 839  C 526.5 842.36  523.86 845  520.5 845  C 517.14 845  514.5 842.36  514.5 839  C 514.5 835.64  517.14 833  520.5 833  Z " stroke-width="1" stroke="#0043f0" fill="none" />
  <path d="M 520.5 842.25  C 518.68 842.25  517.25 840.82  517.25 839  C 517.25 837.18  518.68 835.75  520.5 835.75  C 522.32 835.75  523.75 837.18  523.75 839  C 523.75 840.82  522.32 842.25  520.5 842.25  " fill-rule="nonzero" fill="#0043f0" stroke="none" />
</svg>