<?xml version="1.0" encoding="utf-8"?>
<svg version="1.1" xmlns:xlink="http://www.w3.org/1999/xlink" width="13px" height="13px" viewBox="735 859.5  13 13" xmlns="http://www.w3.org/2000/svg">
  <path d="M 741.5 860.5  C 744.58 860.5  747 862.92  747 866  C 747 869.08  744.58 871.5  741.5 871.5  C 738.42 871.5  736 869.08  736 866  C 736 862.92  738.42 860.5  741.5 860.5  Z " fill-rule="nonzero" fill="#ffffff" stroke="none" />
  <path d="M 741.5 860.5  C 744.58 860.5  747 862.92  747 866  C 747 869.08  744.58 871.5  741.5 871.5  C 738.42 871.5  736 869.08  736 866  C 736 862.92  738.42 860.5  741.5 860.5  Z " stroke-width="2" stroke="#93939d" fill="none" />
  <path d="M 741.5 869.25  C 739.68 869.25  738.25 867.82  738.25 866  C 738.25 864.18  739.68 862.75  741.5 862.75  C 743.32 862.75  744.75 864.18  744.75 866  C 744.75 867.82  743.32 869.25  741.5 869.25  " fill-rule="nonzero" fill="#93939d" stroke="none" />
</svg>