<?xml version="1.0" encoding="utf-8"?>
<svg version="1.1" xmlns:xlink="http://www.w3.org/1999/xlink" width="13px" height="13px" viewBox="10 4.5  13 13" xmlns="http://www.w3.org/2000/svg">
  <path d="M 16.5 5.5  C 19.58 5.5  22 7.92  22 11  C 22 14.08  19.58 16.5  16.5 16.5  C 13.42 16.5  11 14.08  11 11  C 11 7.92  13.42 5.5  16.5 5.5  Z " fill-rule="nonzero" fill="#ffffff" stroke="none" />
  <path d="M 16.5 5.5  C 19.58 5.5  22 7.92  22 11  C 22 14.08  19.58 16.5  16.5 16.5  C 13.42 16.5  11 14.08  11 11  C 11 7.92  13.42 5.5  16.5 5.5  Z " stroke-width="2" stroke="#7044ec" fill="none" />
  <path d="M 16.5 14.25  C 14.68 14.25  13.25 12.82  13.25 11  C 13.25 9.18  14.68 7.75  16.5 7.75  C 18.32 7.75  19.75 9.18  19.75 11  C 19.75 12.82  18.32 14.25  16.5 14.25  " fill-rule="nonzero" fill="#7044ec" stroke="none" />
</svg>