<?xml version="1.0" encoding="utf-8"?>
<svg version="1.1" xmlns:xlink="http://www.w3.org/1999/xlink" width="13px" height="13px" viewBox="126 313  13 13" xmlns="http://www.w3.org/2000/svg">
  <path d="M 132.5 314  C 135.58 314  138 316.42  138 319.5  C 138 322.58  135.58 325  132.5 325  C 129.42 325  127 322.58  127 319.5  C 127 316.42  129.42 314  132.5 314  Z " fill-rule="nonzero" fill="#ffffff" stroke="none" />
  <path d="M 132.5 314  C 135.58 314  138 316.42  138 319.5  C 138 322.58  135.58 325  132.5 325  C 129.42 325  127 322.58  127 319.5  C 127 316.42  129.42 314  132.5 314  Z " stroke-width="2" stroke="#93939d" fill="none" />
  <path d="M 132.5 322.75  C 130.68 322.75  129.25 321.32  129.25 319.5  C 129.25 317.68  130.68 316.25  132.5 316.25  C 134.32 316.25  135.75 317.68  135.75 319.5  C 135.75 321.32  134.32 322.75  132.5 322.75  " fill-rule="nonzero" fill="#93939d" stroke="none" />
</svg>