<?xml version="1.0" encoding="utf-8"?>
<svg version="1.1" xmlns:xlink="http://www.w3.org/1999/xlink" width="13px" height="13px" viewBox="376 313  13 13" xmlns="http://www.w3.org/2000/svg">
  <path d="M 382.5 314  C 385.58 314  388 316.42  388 319.5  C 388 322.58  385.58 325  382.5 325  C 379.42 325  377 322.58  377 319.5  C 377 316.42  379.42 314  382.5 314  Z " fill-rule="nonzero" fill="#ffffff" stroke="none" />
  <path d="M 382.5 314  C 385.58 314  388 316.42  388 319.5  C 388 322.58  385.58 325  382.5 325  C 379.42 325  377 322.58  377 319.5  C 377 316.42  379.42 314  382.5 314  Z " stroke-width="2" stroke="#93939d" fill="none" />
  <path d="M 382.5 322.75  C 380.68 322.75  379.25 321.32  379.25 319.5  C 379.25 317.68  380.68 316.25  382.5 316.25  C 384.32 316.25  385.75 317.68  385.75 319.5  C 385.75 321.32  384.32 322.75  382.5 322.75  " fill-rule="nonzero" fill="#93939d" stroke="none" />
</svg>