<?xml version="1.0" encoding="utf-8"?>
<svg version="1.1" xmlns:xlink="http://www.w3.org/1999/xlink" width="13px" height="13px" viewBox="237 313  13 13" xmlns="http://www.w3.org/2000/svg">
  <path d="M 243.5 314  C 246.58 314  249 316.42  249 319.5  C 249 322.58  246.58 325  243.5 325  C 240.42 325  238 322.58  238 319.5  C 238 316.42  240.42 314  243.5 314  Z " fill-rule="nonzero" fill="#f0f0f0" stroke="none" />
  <path d="M 243.5 314  C 246.58 314  249 316.42  249 319.5  C 249 322.58  246.58 325  243.5 325  C 240.42 325  238 322.58  238 319.5  C 238 316.42  240.42 314  243.5 314  Z " stroke-width="2" stroke="#93939d" fill="none" />
  <path d="M 243.5 322.75  C 241.68 322.75  240.25 321.32  240.25 319.5  C 240.25 317.68  241.68 316.25  243.5 316.25  C 245.32 316.25  246.75 317.68  246.75 319.5  C 246.75 321.32  245.32 322.75  243.5 322.75  " fill-rule="nonzero" fill="#93939d" stroke="none" />
</svg>