<?xml version="1.0" encoding="utf-8"?>
<svg version="1.1" xmlns:xlink="http://www.w3.org/1999/xlink" width="13px" height="13px" viewBox="399 840.5  13 13" xmlns="http://www.w3.org/2000/svg">
  <path d="M 405.5 841.5  C 408.58 841.5  411 843.92  411 847  C 411 850.08  408.58 852.5  405.5 852.5  C 402.42 852.5  400 850.08  400 847  C 400 843.92  402.42 841.5  405.5 841.5  Z " fill-rule="nonzero" fill="#f0f0f0" stroke="none" />
  <path d="M 405.5 841.5  C 408.58 841.5  411 843.92  411 847  C 411 850.08  408.58 852.5  405.5 852.5  C 402.42 852.5  400 850.08  400 847  C 400 843.92  402.42 841.5  405.5 841.5  Z " stroke-width="2" stroke="#93939d" fill="none" />
  <path d="M 405.5 850.25  C 403.68 850.25  402.25 848.82  402.25 847  C 402.25 845.18  403.68 843.75  405.5 843.75  C 407.32 843.75  408.75 845.18  408.75 847  C 408.75 848.82  407.32 850.25  405.5 850.25  " fill-rule="nonzero" fill="#93939d" stroke="none" />
</svg>