<?xml version="1.0" encoding="utf-8"?>
<svg version="1.1" xmlns:xlink="http://www.w3.org/1999/xlink" width="13px" height="13px" viewBox="735 839.5  13 13" xmlns="http://www.w3.org/2000/svg">
  <path d="M 741.5 840.5  C 744.58 840.5  747 842.92  747 846  C 747 849.08  744.58 851.5  741.5 851.5  C 738.42 851.5  736 849.08  736 846  C 736 842.92  738.42 840.5  741.5 840.5  Z " fill-rule="nonzero" fill="#ffffff" stroke="none" />
  <path d="M 741.5 840.5  C 744.58 840.5  747 842.92  747 846  C 747 849.08  744.58 851.5  741.5 851.5  C 738.42 851.5  736 849.08  736 846  C 736 842.92  738.42 840.5  741.5 840.5  Z " stroke-width="2" stroke="#93939d" fill="none" />
  <path d="M 741.5 849.25  C 739.68 849.25  738.25 847.82  738.25 846  C 738.25 844.18  739.68 842.75  741.5 842.75  C 743.32 842.75  744.75 844.18  744.75 846  C 744.75 847.82  743.32 849.25  741.5 849.25  " fill-rule="nonzero" fill="#93939d" stroke="none" />
</svg>