<?xml version="1.0" encoding="utf-8"?>
<svg version="1.1" xmlns:xlink="http://www.w3.org/1999/xlink" width="13px" height="13px" viewBox="475 313  13 13" xmlns="http://www.w3.org/2000/svg">
  <path d="M 481.5 314  C 484.58 314  487 316.42  487 319.5  C 487 322.58  484.58 325  481.5 325  C 478.42 325  476 322.58  476 319.5  C 476 316.42  478.42 314  481.5 314  Z " fill-rule="nonzero" fill="#f0f0f0" stroke="none" />
  <path d="M 481.5 314  C 484.58 314  487 316.42  487 319.5  C 487 322.58  484.58 325  481.5 325  C 478.42 325  476 322.58  476 319.5  C 476 316.42  478.42 314  481.5 314  Z " stroke-width="2" stroke="#93939d" fill="none" />
  <path d="M 481.5 322.75  C 479.68 322.75  478.25 321.32  478.25 319.5  C 478.25 317.68  479.68 316.25  481.5 316.25  C 483.32 316.25  484.75 317.68  484.75 319.5  C 484.75 321.32  483.32 322.75  481.5 322.75  " fill-rule="nonzero" fill="#93939d" stroke="none" />
</svg>