<?xml version="1.0" encoding="utf-8"?>
<svg version="1.1" xmlns:xlink="http://www.w3.org/1999/xlink" width="13px" height="13px" viewBox="98 271.5  13 13" xmlns="http://www.w3.org/2000/svg">
  <path d="M 104.5 271.5  C 108.14 271.5  111 274.36  111 278  C 111 281.64  108.14 284.5  104.5 284.5  C 100.86 284.5  98 281.64  98 278  C 98 274.36  100.86 271.5  104.5 271.5  Z " fill-rule="nonzero" fill="#ffffff" stroke="none" />
  <path d="M 104.5 272  C 107.86 272  110.5 274.64  110.5 278  C 110.5 281.36  107.86 284  104.5 284  C 101.14 284  98.5 281.36  98.5 278  C 98.5 274.64  101.14 272  104.5 272  Z " stroke-width="1" stroke="#0043f0" fill="none" />
  <path d="M 104.5 281.25  C 102.68 281.25  101.25 279.82  101.25 278  C 101.25 276.18  102.68 274.75  104.5 274.75  C 106.32 274.75  107.75 276.18  107.75 278  C 107.75 279.82  106.32 281.25  104.5 281.25  " fill-rule="nonzero" fill="#0043f0" stroke="none" />
</svg>