<?xml version="1.0" encoding="utf-8"?>
<svg version="1.1" xmlns:xlink="http://www.w3.org/1999/xlink" width="13px" height="13px" viewBox="22 271.5  13 13" xmlns="http://www.w3.org/2000/svg">
  <path d="M 28.5 271.5  C 32.14 271.5  35 274.36  35 278  C 35 281.64  32.14 284.5  28.5 284.5  C 24.86 284.5  22 281.64  22 278  C 22 274.36  24.86 271.5  28.5 271.5  Z " fill-rule="nonzero" fill="#ffffff" stroke="none" />
  <path d="M 28.5 272  C 31.86 272  34.5 274.64  34.5 278  C 34.5 281.36  31.86 284  28.5 284  C 25.14 284  22.5 281.36  22.5 278  C 22.5 274.64  25.14 272  28.5 272  Z " stroke-width="1" stroke="#0043f0" fill="none" />
  <path d="M 28.5 281.25  C 26.68 281.25  25.25 279.82  25.25 278  C 25.25 276.18  26.68 274.75  28.5 274.75  C 30.32 274.75  31.75 276.18  31.75 278  C 31.75 279.82  30.32 281.25  28.5 281.25  " fill-rule="nonzero" fill="#0043f0" stroke="none" />
</svg>