<?xml version="1.0" encoding="utf-8"?>
<svg version="1.1" xmlns:xlink="http://www.w3.org/1999/xlink" width="13px" height="13px" viewBox="27 286.5  13 13" xmlns="http://www.w3.org/2000/svg">
  <path d="M 33.5 286.5  C 37.14 286.5  40 289.36  40 293  C 40 296.64  37.14 299.5  33.5 299.5  C 29.86 299.5  27 296.64  27 293  C 27 289.36  29.86 286.5  33.5 286.5  Z " fill-rule="nonzero" fill="#ffffff" stroke="none" />
  <path d="M 33.5 287  C 36.86 287  39.5 289.64  39.5 293  C 39.5 296.36  36.86 299  33.5 299  C 30.14 299  27.5 296.36  27.5 293  C 27.5 289.64  30.14 287  33.5 287  Z " stroke-width="1" stroke="#0043f0" fill="none" />
  <path d="M 33.5 296.25  C 31.68 296.25  30.25 294.82  30.25 293  C 30.25 291.18  31.68 289.75  33.5 289.75  C 35.32 289.75  36.75 291.18  36.75 293  C 36.75 294.82  35.32 296.25  33.5 296.25  " fill-rule="nonzero" fill="#0043f0" stroke="none" />
</svg>