<?xml version="1.0" encoding="utf-8"?>
<svg version="1.1" xmlns:xlink="http://www.w3.org/1999/xlink" width="13px" height="13px" viewBox="27 396.5  13 13" xmlns="http://www.w3.org/2000/svg">
  <path d="M 33.5 396.5  C 37.14 396.5  40 399.36  40 403  C 40 406.64  37.14 409.5  33.5 409.5  C 29.86 409.5  27 406.64  27 403  C 27 399.36  29.86 396.5  33.5 396.5  Z " fill-rule="nonzero" fill="#f0f0f0" stroke="none" />
  <path d="M 33.5 397  C 36.86 397  39.5 399.64  39.5 403  C 39.5 406.36  36.86 409  33.5 409  C 30.14 409  27.5 406.36  27.5 403  C 27.5 399.64  30.14 397  33.5 397  Z " stroke-width="1" stroke="#0043f0" fill="none" />
  <path d="M 33.5 406.25  C 31.68 406.25  30.25 404.82  30.25 403  C 30.25 401.18  31.68 399.75  33.5 399.75  C 35.32 399.75  36.75 401.18  36.75 403  C 36.75 404.82  35.32 406.25  33.5 406.25  " fill-rule="nonzero" fill="#0043f0" stroke="none" />
</svg>