<?xml version="1.0" encoding="utf-8"?>
<svg version="1.1" xmlns:xlink="http://www.w3.org/1999/xlink" width="13px" height="13px" viewBox="27 357.5  13 13" xmlns="http://www.w3.org/2000/svg">
  <path d="M 33.5 357.5  C 37.14 357.5  40 360.36  40 364  C 40 367.64  37.14 370.5  33.5 370.5  C 29.86 370.5  27 367.64  27 364  C 27 360.36  29.86 357.5  33.5 357.5  Z " fill-rule="nonzero" fill="#f0f0f0" stroke="none" />
  <path d="M 33.5 358  C 36.86 358  39.5 360.64  39.5 364  C 39.5 367.36  36.86 370  33.5 370  C 30.14 370  27.5 367.36  27.5 364  C 27.5 360.64  30.14 358  33.5 358  Z " stroke-width="1" stroke="#0043f0" fill="none" />
  <path d="M 33.5 367.25  C 31.68 367.25  30.25 365.82  30.25 364  C 30.25 362.18  31.68 360.75  33.5 360.75  C 35.32 360.75  36.75 362.18  36.75 364  C 36.75 365.82  35.32 367.25  33.5 367.25  " fill-rule="nonzero" fill="#0043f0" stroke="none" />
</svg>