<?xml version="1.0" encoding="utf-8"?>
<svg version="1.1" xmlns:xlink="http://www.w3.org/1999/xlink" width="13px" height="13px" viewBox="27 257.5  13 13" xmlns="http://www.w3.org/2000/svg">
  <path d="M 33.5 257.5  C 37.14 257.5  40 260.36  40 264  C 40 267.64  37.14 270.5  33.5 270.5  C 29.86 270.5  27 267.64  27 264  C 27 260.36  29.86 257.5  33.5 257.5  Z " fill-rule="nonzero" fill="#f0f0f0" stroke="none" />
  <path d="M 33.5 258  C 36.86 258  39.5 260.64  39.5 264  C 39.5 267.36  36.86 270  33.5 270  C 30.14 270  27.5 267.36  27.5 264  C 27.5 260.64  30.14 258  33.5 258  Z " stroke-width="1" stroke="#0043f0" fill="none" />
  <path d="M 33.5 267.25  C 31.68 267.25  30.25 265.82  30.25 264  C 30.25 262.18  31.68 260.75  33.5 260.75  C 35.32 260.75  36.75 262.18  36.75 264  C 36.75 265.82  35.32 267.25  33.5 267.25  " fill-rule="nonzero" fill="#0043f0" stroke="none" />
</svg>