<?xml version="1.0" encoding="utf-8"?>
<svg version="1.1" xmlns:xlink="http://www.w3.org/1999/xlink" width="13px" height="13px" viewBox="27 157.5  13 13" xmlns="http://www.w3.org/2000/svg">
  <path d="M 33.5 157.5  C 37.14 157.5  40 160.36  40 164  C 40 167.64  37.14 170.5  33.5 170.5  C 29.86 170.5  27 167.64  27 164  C 27 160.36  29.86 157.5  33.5 157.5  Z " fill-rule="nonzero" fill="#f0f0f0" stroke="none" />
  <path d="M 33.5 158  C 36.86 158  39.5 160.64  39.5 164  C 39.5 167.36  36.86 170  33.5 170  C 30.14 170  27.5 167.36  27.5 164  C 27.5 160.64  30.14 158  33.5 158  Z " stroke-width="1" stroke="#0043f0" fill="none" />
  <path d="M 33.5 167.25  C 31.68 167.25  30.25 165.82  30.25 164  C 30.25 162.18  31.68 160.75  33.5 160.75  C 35.32 160.75  36.75 162.18  36.75 164  C 36.75 165.82  35.32 167.25  33.5 167.25  " fill-rule="nonzero" fill="#0043f0" stroke="none" />
</svg>