<?xml version="1.0" encoding="utf-8"?>
<svg version="1.1" xmlns:xlink="http://www.w3.org/1999/xlink" width="13px" height="13px" viewBox="27 191.5  13 13" xmlns="http://www.w3.org/2000/svg">
  <path d="M 33.5 191.5  C 37.14 191.5  40 194.36  40 198  C 40 201.64  37.14 204.5  33.5 204.5  C 29.86 204.5  27 201.64  27 198  C 27 194.36  29.86 191.5  33.5 191.5  Z " fill-rule="nonzero" fill="#ffffff" stroke="none" />
  <path d="M 33.5 192  C 36.86 192  39.5 194.64  39.5 198  C 39.5 201.36  36.86 204  33.5 204  C 30.14 204  27.5 201.36  27.5 198  C 27.5 194.64  30.14 192  33.5 192  Z " stroke-width="1" stroke="#0043f0" fill="none" />
  <path d="M 33.5 201.25  C 31.68 201.25  30.25 199.82  30.25 198  C 30.25 196.18  31.68 194.75  33.5 194.75  C 35.32 194.75  36.75 196.18  36.75 198  C 36.75 199.82  35.32 201.25  33.5 201.25  " fill-rule="nonzero" fill="#0043f0" stroke="none" />
</svg>