<?xml version="1.0" encoding="utf-8"?>
<svg version="1.1" xmlns:xlink="http://www.w3.org/1999/xlink" width="133px" height="118px" xmlns="http://www.w3.org/2000/svg">
  <g transform="matrix(1 0 0 1 0 -29 )">
    <path d="M 0 29  L 133 29  L 133 147  L 0 147  L 0 29  " fill-rule="nonzero" fill="#cccccc" stroke="none" />
    <path d="M 8 37  L 125 37  L 125 139  L 8 139  L 8 37  " fill-rule="nonzero" fill="#ffffff" stroke="none" />
    <path d="M 78.01 64.4  C 73.054 64.4  69.16 60.506  69.16 55.55  C 69.16 50.594  73.054 46.7  78.01 46.7  C 82.966 46.7  86.86 50.594  86.86 55.55  C 86.86 60.506  82.966 64.4  78.01 64.4  " fill-rule="nonzero" fill="#cccccc" stroke="none" />
    <path d="M 11 136  L 11 83.2  L 38.75 59.2  L 77.6 84.8962406015038  L 99.8 73.6  L 122 84.8962406015038  L 122 136  L 11 136  " fill-rule="nonzero" fill="#169bd5" stroke="none" />
  </g>
</svg>